<?xml version="1.0" encoding="UTF-8"?>
<svg xmlns="http://www.w3.org/2000/svg" xmlns:xlink="http://www.w3.org/1999/xlink" version="1.1" width="41px" height="41px" viewBox="0 0 41 41"><defs><rect id="r0" width="1" height="1" fill="#000000"/></defs><rect x="0" y="0" width="41" height="41" fill="#fefefe"/><use x="4" y="4" xlink:href="#r0"/><use x="5" y="4" xlink:href="#r0"/><use x="6" y="4" xlink:href="#r0"/><use x="7" y="4" xlink:href="#r0"/><use x="8" y="4" xlink:href="#r0"/><use x="9" y="4" xlink:href="#r0"/><use x="10" y="4" xlink:href="#r0"/><use x="12" y="4" xlink:href="#r0"/><use x="14" y="4" xlink:href="#r0"/><use x="16" y="4" xlink:href="#r0"/><use x="17" y="4" xlink:href="#r0"/><use x="18" y="4" xlink:href="#r0"/><use x="19" y="4" xlink:href="#r0"/><use x="23" y="4" xlink:href="#r0"/><use x="27" y="4" xlink:href="#r0"/><use x="30" y="4" xlink:href="#r0"/><use x="31" y="4" xlink:href="#r0"/><use x="32" y="4" xlink:href="#r0"/><use x="33" y="4" xlink:href="#r0"/><use x="34" y="4" xlink:href="#r0"/><use x="35" y="4" xlink:href="#r0"/><use x="36" y="4" xlink:href="#r0"/><use x="4" y="5" xlink:href="#r0"/><use x="10" y="5" xlink:href="#r0"/><use x="13" y="5" xlink:href="#r0"/><use x="14" y="5" xlink:href="#r0"/><use x="15" y="5" xlink:href="#r0"/><use x="16" y="5" xlink:href="#r0"/><use x="17" y="5" xlink:href="#r0"/><use x="20" y="5" xlink:href="#r0"/><use x="21" y="5" xlink:href="#r0"/><use x="24" y="5" xlink:href="#r0"/><use x="25" y="5" xlink:href="#r0"/><use x="26" y="5" xlink:href="#r0"/><use x="27" y="5" xlink:href="#r0"/><use x="28" y="5" xlink:href="#r0"/><use x="30" y="5" xlink:href="#r0"/><use x="36" y="5" xlink:href="#r0"/><use x="4" y="6" xlink:href="#r0"/><use x="6" y="6" xlink:href="#r0"/><use x="7" y="6" xlink:href="#r0"/><use x="8" y="6" xlink:href="#r0"/><use x="10" y="6" xlink:href="#r0"/><use x="12" y="6" xlink:href="#r0"/><use x="13" y="6" xlink:href="#r0"/><use x="14" y="6" xlink:href="#r0"/><use x="20" y="6" xlink:href="#r0"/><use x="26" y="6" xlink:href="#r0"/><use x="30" y="6" xlink:href="#r0"/><use x="32" y="6" xlink:href="#r0"/><use x="33" y="6" xlink:href="#r0"/><use x="34" y="6" xlink:href="#r0"/><use x="36" y="6" xlink:href="#r0"/><use x="4" y="7" xlink:href="#r0"/><use x="6" y="7" xlink:href="#r0"/><use x="7" y="7" xlink:href="#r0"/><use x="8" y="7" xlink:href="#r0"/><use x="10" y="7" xlink:href="#r0"/><use x="12" y="7" xlink:href="#r0"/><use x="13" y="7" xlink:href="#r0"/><use x="14" y="7" xlink:href="#r0"/><use x="16" y="7" xlink:href="#r0"/><use x="18" y="7" xlink:href="#r0"/><use x="19" y="7" xlink:href="#r0"/><use x="21" y="7" xlink:href="#r0"/><use x="22" y="7" xlink:href="#r0"/><use x="24" y="7" xlink:href="#r0"/><use x="26" y="7" xlink:href="#r0"/><use x="28" y="7" xlink:href="#r0"/><use x="30" y="7" xlink:href="#r0"/><use x="32" y="7" xlink:href="#r0"/><use x="33" y="7" xlink:href="#r0"/><use x="34" y="7" xlink:href="#r0"/><use x="36" y="7" xlink:href="#r0"/><use x="4" y="8" xlink:href="#r0"/><use x="6" y="8" xlink:href="#r0"/><use x="7" y="8" xlink:href="#r0"/><use x="8" y="8" xlink:href="#r0"/><use x="10" y="8" xlink:href="#r0"/><use x="12" y="8" xlink:href="#r0"/><use x="15" y="8" xlink:href="#r0"/><use x="16" y="8" xlink:href="#r0"/><use x="18" y="8" xlink:href="#r0"/><use x="20" y="8" xlink:href="#r0"/><use x="21" y="8" xlink:href="#r0"/><use x="22" y="8" xlink:href="#r0"/><use x="23" y="8" xlink:href="#r0"/><use x="24" y="8" xlink:href="#r0"/><use x="27" y="8" xlink:href="#r0"/><use x="28" y="8" xlink:href="#r0"/><use x="30" y="8" xlink:href="#r0"/><use x="32" y="8" xlink:href="#r0"/><use x="33" y="8" xlink:href="#r0"/><use x="34" y="8" xlink:href="#r0"/><use x="36" y="8" xlink:href="#r0"/><use x="4" y="9" xlink:href="#r0"/><use x="10" y="9" xlink:href="#r0"/><use x="14" y="9" xlink:href="#r0"/><use x="15" y="9" xlink:href="#r0"/><use x="17" y="9" xlink:href="#r0"/><use x="19" y="9" xlink:href="#r0"/><use x="20" y="9" xlink:href="#r0"/><use x="21" y="9" xlink:href="#r0"/><use x="23" y="9" xlink:href="#r0"/><use x="25" y="9" xlink:href="#r0"/><use x="30" y="9" xlink:href="#r0"/><use x="36" y="9" xlink:href="#r0"/><use x="4" y="10" xlink:href="#r0"/><use x="5" y="10" xlink:href="#r0"/><use x="6" y="10" xlink:href="#r0"/><use x="7" y="10" xlink:href="#r0"/><use x="8" y="10" xlink:href="#r0"/><use x="9" y="10" xlink:href="#r0"/><use x="10" y="10" xlink:href="#r0"/><use x="12" y="10" xlink:href="#r0"/><use x="14" y="10" xlink:href="#r0"/><use x="16" y="10" xlink:href="#r0"/><use x="18" y="10" xlink:href="#r0"/><use x="20" y="10" xlink:href="#r0"/><use x="22" y="10" xlink:href="#r0"/><use x="24" y="10" xlink:href="#r0"/><use x="26" y="10" xlink:href="#r0"/><use x="28" y="10" xlink:href="#r0"/><use x="30" y="10" xlink:href="#r0"/><use x="31" y="10" xlink:href="#r0"/><use x="32" y="10" xlink:href="#r0"/><use x="33" y="10" xlink:href="#r0"/><use x="34" y="10" xlink:href="#r0"/><use x="35" y="10" xlink:href="#r0"/><use x="36" y="10" xlink:href="#r0"/><use x="14" y="11" xlink:href="#r0"/><use x="16" y="11" xlink:href="#r0"/><use x="19" y="11" xlink:href="#r0"/><use x="20" y="11" xlink:href="#r0"/><use x="21" y="11" xlink:href="#r0"/><use x="26" y="11" xlink:href="#r0"/><use x="27" y="11" xlink:href="#r0"/><use x="4" y="12" xlink:href="#r0"/><use x="5" y="12" xlink:href="#r0"/><use x="6" y="12" xlink:href="#r0"/><use x="7" y="12" xlink:href="#r0"/><use x="10" y="12" xlink:href="#r0"/><use x="12" y="12" xlink:href="#r0"/><use x="14" y="12" xlink:href="#r0"/><use x="15" y="12" xlink:href="#r0"/><use x="16" y="12" xlink:href="#r0"/><use x="17" y="12" xlink:href="#r0"/><use x="19" y="12" xlink:href="#r0"/><use x="20" y="12" xlink:href="#r0"/><use x="21" y="12" xlink:href="#r0"/><use x="25" y="12" xlink:href="#r0"/><use x="29" y="12" xlink:href="#r0"/><use x="32" y="12" xlink:href="#r0"/><use x="33" y="12" xlink:href="#r0"/><use x="34" y="12" xlink:href="#r0"/><use x="36" y="12" xlink:href="#r0"/><use x="4" y="13" xlink:href="#r0"/><use x="7" y="13" xlink:href="#r0"/><use x="8" y="13" xlink:href="#r0"/><use x="9" y="13" xlink:href="#r0"/><use x="14" y="13" xlink:href="#r0"/><use x="16" y="13" xlink:href="#r0"/><use x="17" y="13" xlink:href="#r0"/><use x="18" y="13" xlink:href="#r0"/><use x="19" y="13" xlink:href="#r0"/><use x="23" y="13" xlink:href="#r0"/><use x="25" y="13" xlink:href="#r0"/><use x="27" y="13" xlink:href="#r0"/><use x="28" y="13" xlink:href="#r0"/><use x="29" y="13" xlink:href="#r0"/><use x="30" y="13" xlink:href="#r0"/><use x="31" y="13" xlink:href="#r0"/><use x="5" y="14" xlink:href="#r0"/><use x="8" y="14" xlink:href="#r0"/><use x="10" y="14" xlink:href="#r0"/><use x="13" y="14" xlink:href="#r0"/><use x="14" y="14" xlink:href="#r0"/><use x="15" y="14" xlink:href="#r0"/><use x="16" y="14" xlink:href="#r0"/><use x="17" y="14" xlink:href="#r0"/><use x="21" y="14" xlink:href="#r0"/><use x="24" y="14" xlink:href="#r0"/><use x="25" y="14" xlink:href="#r0"/><use x="26" y="14" xlink:href="#r0"/><use x="27" y="14" xlink:href="#r0"/><use x="28" y="14" xlink:href="#r0"/><use x="30" y="14" xlink:href="#r0"/><use x="32" y="14" xlink:href="#r0"/><use x="35" y="14" xlink:href="#r0"/><use x="36" y="14" xlink:href="#r0"/><use x="4" y="15" xlink:href="#r0"/><use x="5" y="15" xlink:href="#r0"/><use x="6" y="15" xlink:href="#r0"/><use x="8" y="15" xlink:href="#r0"/><use x="11" y="15" xlink:href="#r0"/><use x="13" y="15" xlink:href="#r0"/><use x="14" y="15" xlink:href="#r0"/><use x="20" y="15" xlink:href="#r0"/><use x="22" y="15" xlink:href="#r0"/><use x="24" y="15" xlink:href="#r0"/><use x="32" y="15" xlink:href="#r0"/><use x="33" y="15" xlink:href="#r0"/><use x="35" y="15" xlink:href="#r0"/><use x="36" y="15" xlink:href="#r0"/><use x="4" y="16" xlink:href="#r0"/><use x="6" y="16" xlink:href="#r0"/><use x="7" y="16" xlink:href="#r0"/><use x="9" y="16" xlink:href="#r0"/><use x="10" y="16" xlink:href="#r0"/><use x="11" y="16" xlink:href="#r0"/><use x="12" y="16" xlink:href="#r0"/><use x="13" y="16" xlink:href="#r0"/><use x="14" y="16" xlink:href="#r0"/><use x="16" y="16" xlink:href="#r0"/><use x="18" y="16" xlink:href="#r0"/><use x="19" y="16" xlink:href="#r0"/><use x="20" y="16" xlink:href="#r0"/><use x="21" y="16" xlink:href="#r0"/><use x="22" y="16" xlink:href="#r0"/><use x="23" y="16" xlink:href="#r0"/><use x="26" y="16" xlink:href="#r0"/><use x="27" y="16" xlink:href="#r0"/><use x="28" y="16" xlink:href="#r0"/><use x="32" y="16" xlink:href="#r0"/><use x="34" y="16" xlink:href="#r0"/><use x="5" y="17" xlink:href="#r0"/><use x="9" y="17" xlink:href="#r0"/><use x="11" y="17" xlink:href="#r0"/><use x="12" y="17" xlink:href="#r0"/><use x="13" y="17" xlink:href="#r0"/><use x="15" y="17" xlink:href="#r0"/><use x="16" y="17" xlink:href="#r0"/><use x="18" y="17" xlink:href="#r0"/><use x="19" y="17" xlink:href="#r0"/><use x="20" y="17" xlink:href="#r0"/><use x="23" y="17" xlink:href="#r0"/><use x="26" y="17" xlink:href="#r0"/><use x="28" y="17" xlink:href="#r0"/><use x="29" y="17" xlink:href="#r0"/><use x="34" y="17" xlink:href="#r0"/><use x="36" y="17" xlink:href="#r0"/><use x="7" y="18" xlink:href="#r0"/><use x="8" y="18" xlink:href="#r0"/><use x="10" y="18" xlink:href="#r0"/><use x="12" y="18" xlink:href="#r0"/><use x="13" y="18" xlink:href="#r0"/><use x="14" y="18" xlink:href="#r0"/><use x="15" y="18" xlink:href="#r0"/><use x="17" y="18" xlink:href="#r0"/><use x="21" y="18" xlink:href="#r0"/><use x="22" y="18" xlink:href="#r0"/><use x="23" y="18" xlink:href="#r0"/><use x="24" y="18" xlink:href="#r0"/><use x="29" y="18" xlink:href="#r0"/><use x="32" y="18" xlink:href="#r0"/><use x="34" y="18" xlink:href="#r0"/><use x="4" y="19" xlink:href="#r0"/><use x="5" y="19" xlink:href="#r0"/><use x="6" y="19" xlink:href="#r0"/><use x="8" y="19" xlink:href="#r0"/><use x="11" y="19" xlink:href="#r0"/><use x="13" y="19" xlink:href="#r0"/><use x="14" y="19" xlink:href="#r0"/><use x="15" y="19" xlink:href="#r0"/><use x="18" y="19" xlink:href="#r0"/><use x="19" y="19" xlink:href="#r0"/><use x="25" y="19" xlink:href="#r0"/><use x="26" y="19" xlink:href="#r0"/><use x="30" y="19" xlink:href="#r0"/><use x="31" y="19" xlink:href="#r0"/><use x="32" y="19" xlink:href="#r0"/><use x="33" y="19" xlink:href="#r0"/><use x="34" y="19" xlink:href="#r0"/><use x="35" y="19" xlink:href="#r0"/><use x="5" y="20" xlink:href="#r0"/><use x="9" y="20" xlink:href="#r0"/><use x="10" y="20" xlink:href="#r0"/><use x="12" y="20" xlink:href="#r0"/><use x="16" y="20" xlink:href="#r0"/><use x="18" y="20" xlink:href="#r0"/><use x="24" y="20" xlink:href="#r0"/><use x="25" y="20" xlink:href="#r0"/><use x="26" y="20" xlink:href="#r0"/><use x="27" y="20" xlink:href="#r0"/><use x="30" y="20" xlink:href="#r0"/><use x="31" y="20" xlink:href="#r0"/><use x="32" y="20" xlink:href="#r0"/><use x="33" y="20" xlink:href="#r0"/><use x="35" y="20" xlink:href="#r0"/><use x="7" y="21" xlink:href="#r0"/><use x="11" y="21" xlink:href="#r0"/><use x="12" y="21" xlink:href="#r0"/><use x="13" y="21" xlink:href="#r0"/><use x="18" y="21" xlink:href="#r0"/><use x="19" y="21" xlink:href="#r0"/><use x="22" y="21" xlink:href="#r0"/><use x="24" y="21" xlink:href="#r0"/><use x="25" y="21" xlink:href="#r0"/><use x="26" y="21" xlink:href="#r0"/><use x="27" y="21" xlink:href="#r0"/><use x="28" y="21" xlink:href="#r0"/><use x="30" y="21" xlink:href="#r0"/><use x="32" y="21" xlink:href="#r0"/><use x="33" y="21" xlink:href="#r0"/><use x="35" y="21" xlink:href="#r0"/><use x="4" y="22" xlink:href="#r0"/><use x="5" y="22" xlink:href="#r0"/><use x="10" y="22" xlink:href="#r0"/><use x="14" y="22" xlink:href="#r0"/><use x="17" y="22" xlink:href="#r0"/><use x="18" y="22" xlink:href="#r0"/><use x="19" y="22" xlink:href="#r0"/><use x="21" y="22" xlink:href="#r0"/><use x="22" y="22" xlink:href="#r0"/><use x="24" y="22" xlink:href="#r0"/><use x="26" y="22" xlink:href="#r0"/><use x="28" y="22" xlink:href="#r0"/><use x="29" y="22" xlink:href="#r0"/><use x="33" y="22" xlink:href="#r0"/><use x="35" y="22" xlink:href="#r0"/><use x="7" y="23" xlink:href="#r0"/><use x="9" y="23" xlink:href="#r0"/><use x="12" y="23" xlink:href="#r0"/><use x="13" y="23" xlink:href="#r0"/><use x="15" y="23" xlink:href="#r0"/><use x="17" y="23" xlink:href="#r0"/><use x="18" y="23" xlink:href="#r0"/><use x="19" y="23" xlink:href="#r0"/><use x="20" y="23" xlink:href="#r0"/><use x="21" y="23" xlink:href="#r0"/><use x="24" y="23" xlink:href="#r0"/><use x="28" y="23" xlink:href="#r0"/><use x="30" y="23" xlink:href="#r0"/><use x="35" y="23" xlink:href="#r0"/><use x="36" y="23" xlink:href="#r0"/><use x="4" y="24" xlink:href="#r0"/><use x="9" y="24" xlink:href="#r0"/><use x="10" y="24" xlink:href="#r0"/><use x="13" y="24" xlink:href="#r0"/><use x="17" y="24" xlink:href="#r0"/><use x="18" y="24" xlink:href="#r0"/><use x="19" y="24" xlink:href="#r0"/><use x="20" y="24" xlink:href="#r0"/><use x="21" y="24" xlink:href="#r0"/><use x="25" y="24" xlink:href="#r0"/><use x="26" y="24" xlink:href="#r0"/><use x="27" y="24" xlink:href="#r0"/><use x="29" y="24" xlink:href="#r0"/><use x="31" y="24" xlink:href="#r0"/><use x="35" y="24" xlink:href="#r0"/><use x="36" y="24" xlink:href="#r0"/><use x="4" y="25" xlink:href="#r0"/><use x="7" y="25" xlink:href="#r0"/><use x="11" y="25" xlink:href="#r0"/><use x="13" y="25" xlink:href="#r0"/><use x="14" y="25" xlink:href="#r0"/><use x="20" y="25" xlink:href="#r0"/><use x="23" y="25" xlink:href="#r0"/><use x="24" y="25" xlink:href="#r0"/><use x="25" y="25" xlink:href="#r0"/><use x="27" y="25" xlink:href="#r0"/><use x="29" y="25" xlink:href="#r0"/><use x="30" y="25" xlink:href="#r0"/><use x="31" y="25" xlink:href="#r0"/><use x="34" y="25" xlink:href="#r0"/><use x="8" y="26" xlink:href="#r0"/><use x="9" y="26" xlink:href="#r0"/><use x="10" y="26" xlink:href="#r0"/><use x="11" y="26" xlink:href="#r0"/><use x="14" y="26" xlink:href="#r0"/><use x="18" y="26" xlink:href="#r0"/><use x="20" y="26" xlink:href="#r0"/><use x="21" y="26" xlink:href="#r0"/><use x="24" y="26" xlink:href="#r0"/><use x="27" y="26" xlink:href="#r0"/><use x="28" y="26" xlink:href="#r0"/><use x="30" y="26" xlink:href="#r0"/><use x="35" y="26" xlink:href="#r0"/><use x="36" y="26" xlink:href="#r0"/><use x="5" y="27" xlink:href="#r0"/><use x="6" y="27" xlink:href="#r0"/><use x="7" y="27" xlink:href="#r0"/><use x="11" y="27" xlink:href="#r0"/><use x="12" y="27" xlink:href="#r0"/><use x="13" y="27" xlink:href="#r0"/><use x="15" y="27" xlink:href="#r0"/><use x="16" y="27" xlink:href="#r0"/><use x="17" y="27" xlink:href="#r0"/><use x="18" y="27" xlink:href="#r0"/><use x="23" y="27" xlink:href="#r0"/><use x="24" y="27" xlink:href="#r0"/><use x="26" y="27" xlink:href="#r0"/><use x="29" y="27" xlink:href="#r0"/><use x="32" y="27" xlink:href="#r0"/><use x="33" y="27" xlink:href="#r0"/><use x="35" y="27" xlink:href="#r0"/><use x="36" y="27" xlink:href="#r0"/><use x="4" y="28" xlink:href="#r0"/><use x="6" y="28" xlink:href="#r0"/><use x="7" y="28" xlink:href="#r0"/><use x="10" y="28" xlink:href="#r0"/><use x="11" y="28" xlink:href="#r0"/><use x="15" y="28" xlink:href="#r0"/><use x="19" y="28" xlink:href="#r0"/><use x="21" y="28" xlink:href="#r0"/><use x="22" y="28" xlink:href="#r0"/><use x="23" y="28" xlink:href="#r0"/><use x="25" y="28" xlink:href="#r0"/><use x="26" y="28" xlink:href="#r0"/><use x="28" y="28" xlink:href="#r0"/><use x="29" y="28" xlink:href="#r0"/><use x="30" y="28" xlink:href="#r0"/><use x="31" y="28" xlink:href="#r0"/><use x="32" y="28" xlink:href="#r0"/><use x="34" y="28" xlink:href="#r0"/><use x="12" y="29" xlink:href="#r0"/><use x="15" y="29" xlink:href="#r0"/><use x="17" y="29" xlink:href="#r0"/><use x="19" y="29" xlink:href="#r0"/><use x="20" y="29" xlink:href="#r0"/><use x="21" y="29" xlink:href="#r0"/><use x="22" y="29" xlink:href="#r0"/><use x="23" y="29" xlink:href="#r0"/><use x="27" y="29" xlink:href="#r0"/><use x="28" y="29" xlink:href="#r0"/><use x="32" y="29" xlink:href="#r0"/><use x="34" y="29" xlink:href="#r0"/><use x="36" y="29" xlink:href="#r0"/><use x="4" y="30" xlink:href="#r0"/><use x="5" y="30" xlink:href="#r0"/><use x="6" y="30" xlink:href="#r0"/><use x="7" y="30" xlink:href="#r0"/><use x="8" y="30" xlink:href="#r0"/><use x="9" y="30" xlink:href="#r0"/><use x="10" y="30" xlink:href="#r0"/><use x="14" y="30" xlink:href="#r0"/><use x="16" y="30" xlink:href="#r0"/><use x="18" y="30" xlink:href="#r0"/><use x="21" y="30" xlink:href="#r0"/><use x="23" y="30" xlink:href="#r0"/><use x="24" y="30" xlink:href="#r0"/><use x="26" y="30" xlink:href="#r0"/><use x="28" y="30" xlink:href="#r0"/><use x="30" y="30" xlink:href="#r0"/><use x="32" y="30" xlink:href="#r0"/><use x="34" y="30" xlink:href="#r0"/><use x="4" y="31" xlink:href="#r0"/><use x="10" y="31" xlink:href="#r0"/><use x="13" y="31" xlink:href="#r0"/><use x="14" y="31" xlink:href="#r0"/><use x="16" y="31" xlink:href="#r0"/><use x="17" y="31" xlink:href="#r0"/><use x="20" y="31" xlink:href="#r0"/><use x="22" y="31" xlink:href="#r0"/><use x="25" y="31" xlink:href="#r0"/><use x="26" y="31" xlink:href="#r0"/><use x="27" y="31" xlink:href="#r0"/><use x="28" y="31" xlink:href="#r0"/><use x="32" y="31" xlink:href="#r0"/><use x="34" y="31" xlink:href="#r0"/><use x="35" y="31" xlink:href="#r0"/><use x="4" y="32" xlink:href="#r0"/><use x="6" y="32" xlink:href="#r0"/><use x="7" y="32" xlink:href="#r0"/><use x="8" y="32" xlink:href="#r0"/><use x="10" y="32" xlink:href="#r0"/><use x="15" y="32" xlink:href="#r0"/><use x="23" y="32" xlink:href="#r0"/><use x="24" y="32" xlink:href="#r0"/><use x="25" y="32" xlink:href="#r0"/><use x="26" y="32" xlink:href="#r0"/><use x="27" y="32" xlink:href="#r0"/><use x="28" y="32" xlink:href="#r0"/><use x="29" y="32" xlink:href="#r0"/><use x="30" y="32" xlink:href="#r0"/><use x="31" y="32" xlink:href="#r0"/><use x="32" y="32" xlink:href="#r0"/><use x="33" y="32" xlink:href="#r0"/><use x="34" y="32" xlink:href="#r0"/><use x="4" y="33" xlink:href="#r0"/><use x="6" y="33" xlink:href="#r0"/><use x="7" y="33" xlink:href="#r0"/><use x="8" y="33" xlink:href="#r0"/><use x="10" y="33" xlink:href="#r0"/><use x="12" y="33" xlink:href="#r0"/><use x="16" y="33" xlink:href="#r0"/><use x="17" y="33" xlink:href="#r0"/><use x="22" y="33" xlink:href="#r0"/><use x="24" y="33" xlink:href="#r0"/><use x="29" y="33" xlink:href="#r0"/><use x="31" y="33" xlink:href="#r0"/><use x="36" y="33" xlink:href="#r0"/><use x="4" y="34" xlink:href="#r0"/><use x="6" y="34" xlink:href="#r0"/><use x="7" y="34" xlink:href="#r0"/><use x="8" y="34" xlink:href="#r0"/><use x="10" y="34" xlink:href="#r0"/><use x="12" y="34" xlink:href="#r0"/><use x="13" y="34" xlink:href="#r0"/><use x="14" y="34" xlink:href="#r0"/><use x="15" y="34" xlink:href="#r0"/><use x="16" y="34" xlink:href="#r0"/><use x="19" y="34" xlink:href="#r0"/><use x="21" y="34" xlink:href="#r0"/><use x="22" y="34" xlink:href="#r0"/><use x="25" y="34" xlink:href="#r0"/><use x="27" y="34" xlink:href="#r0"/><use x="29" y="34" xlink:href="#r0"/><use x="30" y="34" xlink:href="#r0"/><use x="31" y="34" xlink:href="#r0"/><use x="34" y="34" xlink:href="#r0"/><use x="4" y="35" xlink:href="#r0"/><use x="10" y="35" xlink:href="#r0"/><use x="12" y="35" xlink:href="#r0"/><use x="14" y="35" xlink:href="#r0"/><use x="16" y="35" xlink:href="#r0"/><use x="21" y="35" xlink:href="#r0"/><use x="23" y="35" xlink:href="#r0"/><use x="24" y="35" xlink:href="#r0"/><use x="27" y="35" xlink:href="#r0"/><use x="28" y="35" xlink:href="#r0"/><use x="29" y="35" xlink:href="#r0"/><use x="30" y="35" xlink:href="#r0"/><use x="32" y="35" xlink:href="#r0"/><use x="33" y="35" xlink:href="#r0"/><use x="36" y="35" xlink:href="#r0"/><use x="4" y="36" xlink:href="#r0"/><use x="5" y="36" xlink:href="#r0"/><use x="6" y="36" xlink:href="#r0"/><use x="7" y="36" xlink:href="#r0"/><use x="8" y="36" xlink:href="#r0"/><use x="9" y="36" xlink:href="#r0"/><use x="10" y="36" xlink:href="#r0"/><use x="12" y="36" xlink:href="#r0"/><use x="14" y="36" xlink:href="#r0"/><use x="15" y="36" xlink:href="#r0"/><use x="16" y="36" xlink:href="#r0"/><use x="17" y="36" xlink:href="#r0"/><use x="20" y="36" xlink:href="#r0"/><use x="21" y="36" xlink:href="#r0"/><use x="23" y="36" xlink:href="#r0"/><use x="24" y="36" xlink:href="#r0"/><use x="25" y="36" xlink:href="#r0"/><use x="30" y="36" xlink:href="#r0"/><use x="32" y="36" xlink:href="#r0"/><use x="33" y="36" xlink:href="#r0"/><use x="34" y="36" xlink:href="#r0"/></svg>
