<svg xmlns="http://www.w3.org/2000/svg" viewBox="0 0 941.99 288.8"><defs><style>.cls-1{fill:#fff;fill-rule:evenodd;}</style></defs><title>Asset 1</title><g id="Layer_2" data-name="Layer 2"><g id="Layer_1-2" data-name="Layer 1"><path class="cls-1" d="M627.13.75H786.36l0,41.53-97.65-.21v28.8h91.32V110H688.35v35H790.66V.75h59.6v140H942v47.66H627.13V153.93c-8,19.46-28.22,34.69-54,33.8H450.38V105.6c-3.54,45.17-28.87,81.68-99.06,82.09-76.14.43-98.61-40.34-98.61-93.76a136.1,136.1,0,0,1,.75-14.5L224.95,188.59H170.22L123.86,87,96.65,188.59H0l1.64-6.66,33.94.16v-4H2.46l3.06-12.34,34.34,0v-2.18L6,163.64,9.18,151l34.95.15v-4.17H10.2l3-12.19,34.47.05v-2.39l-33.84-.2,3-12.29,35.58.21.11-4.24H17.89l3-12.11,36,.06L57,101.6l-35.61.15,3.07-12.38,36.77,0V85.17l-35.75,0,3-12L65.23,73l.05-2.34L29,70.71l3.06-12.32,37.67,0v-4l-36.65-.11,3.1-12.51,37.62.1V39.68l-37.11,0L39.8,27.3l38.5.27V23.2l-37.47-.08,3-12,38.57-.28v-2L44.34,9l2-8.05h97.93l45.3,100.16L217.94.9h56L261.5,48.62C274.75,19.36,303.61.3,352.61,0c66-.4,94,37.36,97.77,83V.15h109c63.87-2.27,80.87,60.79,34.6,87,17.43,7.59,28,18.48,33.15,30.32ZM350.63,40.18c24.5.67,40.08,19.09,40.31,51.23s-12.9,58.8-40.31,57.9-38.76-26.77-38.76-56.9,14.26-52.9,38.76-52.23ZM512,37.66c80.95-14.74,76.58,53.9,0,36.66Zm0,72.71c80.95-14.73,76.58,53.9,0,36.66Zm0,0"/><path class="cls-1" d="M499.65,287.38h33.52a50.62,50.62,0,0,0,9.91-1.83c3-1,5.36-1.83,7.54-3.87A22.19,22.19,0,0,0,558,265.61v-.82c0-6.51-1.39-9.15-4.17-13-2.77-3.67-9.72-6.1-10.11-6.71,4.56-1.22,10.51-9.36,10.51-15.67v-1.21c0-12.62-10.51-20.15-22.8-20.15H499.65Zm186-67.95h9.52V208H685.7Zm0,67.95h9.52V229.61H685.7Zm-361.57,0h9.52V208h-9.52Zm116.62-63.67v6.1h-7.93v7.53h7.93v50h9.52v-50H461V229.8H450.27v-5.9c0-5.49,2.18-8.14,7.54-8.14l.59-.2,5.56.61,1.39-8.55-8.53-.81h-1.19c-5.55,0-8.53,1.63-11.3,4.48-3,3.05-3.57,6.51-3.57,12.41ZM86.91,259.3v3.45a43.8,43.8,0,0,0,2.18,10.38,29,29,0,0,0,4.76,7.93c3.38,3.86,10.51,7.53,17.66,7.53h1.19c6.15,0,12.5-2.85,15.47-5.9,1.79-1.83,3.57-3.46,4.56-6.1.79-1.42,2.78-6.31,2.78-8.14v-1l-7.94-1.22h-1.38v1.43c0,2.84-2.79,7.52-4.37,9.15a12.16,12.16,0,0,1-9.32,3.86h-1a14.29,14.29,0,0,1-10.72-5.49,23.59,23.59,0,0,1-4.16-12.41v-7.93c0-4.68,2.18-10.57,4.16-13,2.78-2.85,6.15-5.29,11.71-5.29h1c5.75,0,11.7,5.9,11.7,11.59l9.33-1.22c0-5.08-4-10.78-6.74-13.22-3-2.85-8.93-5.09-14.48-5.09-18.25,0-26.38,12-26.38,30.72Zm483.95,9.77c0,6.1,1.79,11,4.76,14,2.58,2.84,8.13,5.49,13.49,5.49h1.79a21.18,21.18,0,0,0,9.92-3.05,27.13,27.13,0,0,0,3.77-2.85c.79-.81,2.38-3.05,3-3.46v8.14h8.53V229.8h-9.51v30.52c0,5.7-.4,10.78-2.78,14-2.18,2.85-6.54,5.9-11.3,5.9H589.3a36.32,36.32,0,0,1-4.16-1.83,12.4,12.4,0,0,1-2.78-2.84c-1.59-2.65-2.17-5.9-2.17-10V229.8h-9.33Zm147-31.54V229.8h-8.53v57.57h9.52V255c0-10.58,4.37-17.9,14.48-17.9h.79c7.74,0,11.31,6.11,11.31,14.24v36h9.52V253c0-7.32-.59-13.84-4-17.9-3.17-4.07-7.93-6.51-14.87-6.51h-.59c-3.77,0-8.34,1-10.71,2.64-3.57,2.24-5,4.88-6.94,6.3Zm164,7.32v.41c0,21,35.1,14,35.1,25.64v.2c0,6.72-6.54,9.56-13.09,9.56-3.77,0-8.13-1.22-9.92-3-2.18-2.24-4.36-4.88-4.36-9.16l-9.32,1.43c0,5.09,4.36,11.39,7.14,14,3.77,3.06,9.72,4.68,16.46,4.68,11.5,0,22.81-6.31,22.81-17.7v-1.83c0-18.31-35.7-14.24-35.7-24v-2.44c0-3.86,6.35-6.1,10.71-6.1h3.37c4.76,0,10.12,4.48,10.12,9.35l9.13-1c0-10.37-10.12-16.27-20.23-16.27h-3c-9.72,0-19.24,6.1-19.24,16.27Zm-252.68,0v1.22c0,4.68,3,8.75,5.75,10.78a23.69,23.69,0,0,0,5.55,2.65c1,.4,5.55,1.83,6.15,2.23,2.18,0,8.13,2.24,10.31,2.64,3,.82,7.15,2.65,7.15,6.11v1.83c0,5.7-6.95,8.34-12.89,8.34h-.79c-7.15,0-13.29-5.08-13.49-11.8h-1.79l-7.54,1c.2,5.5,4.16,10.78,6.94,13.63,3,3.05,9.92,5.09,15.67,5.09l2,.2,5.75-.61c1-.61,4.37-1.63,6-2.24a16.8,16.8,0,0,0,5-3.46c2.38-2.44,5.16-6.3,5.16-11.39v-1.63c0-8.95-8.13-13-15.27-14.85a106,106,0,0,1-11.5-3.25c-3-1.22-8.93-2.44-8.93-6.3v-1.43c0-4.68,5.55-7.12,10.32-7.12h3.77a10.39,10.39,0,0,1,10.11,9.35l9.13-1c-.2-10.57-9.92-16.27-20.43-16.27h-1.79c-10.31,0-20.23,5.7-20.23,16.27Zm198.54-1.42v1.83c0,7.73,4.36,11.6,9.92,13.84,2.38,1,15.66,5.08,18,5.08v.61c3.57,0,7.15,2.85,7.15,6.71,0,6.1-6.35,9.15-12.3,9.15-4.17,0-8.13-.81-10.51-2.84a13.83,13.83,0,0,1-4.56-9.16l-9.32,1.22c.2,4.68,4,11.39,6.54,13.43a24.66,24.66,0,0,0,14.68,5.29h3c11.5,0,22.21-6.71,22.21-18.51,0-20.35-35.9-14.65-35.9-25.64V243c0-1.42,2.58-4.06,3.77-4.87a17.51,17.51,0,0,1,6.94-1.63h4a15.33,15.33,0,0,1,5.35,1.83,8.29,8.29,0,0,1,3.37,4.07c1.39,3.26-.6,3.66,3.77,3.06a59.25,59.25,0,0,1,6.55-.61c0-2.44-1.39-5.49-2-7.12-1.2-2.64-2.18-3.26-4.37-4.89-2.57-2-9.12-4.27-13.68-4.27h-3.77c-8.73,0-18.84,6.51-18.84,14.85ZM143.83,287.38h9.52V257.07c0-5.29.39-10.38,2.38-13.63a11,11,0,0,1,4-4.07c1-.61,4.76-2.24,5.75-2.24h3.77c6.74,0,10.31,5.09,10.31,12v38.25h9.52l.2-39.46-.59-5.9c-.8-1.22-1.19-3.46-2.18-5.29a11.71,11.71,0,0,0-3.57-4.07,18.92,18.92,0,0,0-11.11-4.07H169A17.91,17.91,0,0,0,159.9,231c-3.77,1.83-4.16,3.46-6.55,5.29V208h-9.52Zm622.58-31.73v4.07c0,7.32,1.59,13.43,4.57,17.9a23.81,23.81,0,0,0,5.15,5.9c2.58,1.83,5.16,2.44,7.34,3.87l8.13,1.22h2.58a25.93,25.93,0,0,0,15.47-5.49c2.57-2.24,7.73-8.55,7.73-13l-9.52-1.23a14.94,14.94,0,0,1-14.68,11.8c-10.32,0-17.06-8.75-17.06-19.53H818v-4.48c0-14.84-10.12-28.07-24-28.07h-3.77c-6.34,0-14.08,4.48-16.86,8.34-3.57,4.89-6.95,10.38-6.95,18.72Zm9.92-3.86v1.42h31.93c0-8.95-6.34-16.68-15.27-16.68h-.59a15.57,15.57,0,0,0-11.11,4.27c-2,2.24-5,6.92-5,11Zm-758.05-23v1c0,5.49,4.16,11.39,7.34,13.63,4.16,3.05,8.73,4.88,14.48,6.3C45.45,251,51,252.59,56.17,254a17.5,17.5,0,0,1,6.94,3.66c1.39,1.21,3.77,4.27,3.77,6.91v1c0,8.54-8.73,13.63-17.06,13.63h-3c-5.35,0-12.29-2.44-15.27-4.68C28.4,271.71,25,266.83,25,260.93l-9.71.81c0,6.51,2.77,13.22,5.95,16.68,2.57,2.85,9.13,8.34,14.08,8.34v.61l10.91,1.22H49a32.64,32.64,0,0,0,18.84-5.9c4-3.26,8.73-9.16,8.73-16.48v-3.46c0-7.93-6-13.63-11.31-16.27-3.57-1.84-5.75-2.24-9.91-3.67C53,242,46.06,241,44.66,240c-2.38,0-9.33-2.64-11.11-3.66-3.77-1.83-5.16-4.07-5.16-9.56,0-3.26,2.58-6.31,4.36-7.73,1.59-1,6.74-3.05,9.13-3.05h4.36c5.55,0,9.13,1,12.49,3.45,2.19,1.63,5.55,7.13,5.55,10.38v1.43l10.12-.81V229.2c0-6.92-4.56-13.22-8.14-16.27-4-3.46-11.3-6.11-18.44-6.11H40.89c-5.75,0-12.49,3.66-15.86,6.3-3.77,3.05-6.75,9-6.75,15.66ZM200.36,259.3c0,16.68,9.52,29.29,25.38,29.29h1.59a28,28,0,0,0,15.27-5.09,26.59,26.59,0,0,0,5.36-5.29c1.79-2.24,2.18-4.68,3.57-6.71l-.2-1,.59-.81,1-10v-2.64c0-8.34-2.57-15.46-6.34-19.73-3.37-3.87-10.51-8.75-17.45-8.75h-2.38c-17.66,0-26.37,12.61-26.37,30.72Zm9.71-.61v.2c0,6.72,1.19,11,3.77,15.06,2.18,3.25,7.14,6.71,12.1,6.71h1.39c10.51,0,15.87-10.37,15.87-21.56v-2.45c0-10.78-6.15-19.93-16.46-19.93H225c-4.56,0-9.32,4.07-11.31,7.12-2.38,3.87-3.57,8.54-3.57,14.85Zm50.38-3.05v4.07c0,16.07,9.92,28.89,25.39,28.89h1.58c7.14,0,15.87-4.07,18.84-8.14,4.56-5.9,6.75-10.37,6.75-20.75v-3.66c0-16.48-10.52-27.46-26.78-27.46a24.89,24.89,0,0,0-18.44,7.73,23.11,23.11,0,0,0-5,8.34,44.41,44.41,0,0,0-2.38,11Zm9.72,2.24v1.22c0,11.59,5.55,21.56,16.26,21.56h.79c9.91,0,16.07-9.35,16.07-19.73v-3.87c0-5.9-1.39-10.38-4-14-2-2.84-6.55-6.31-11.3-6.31h-3c-4.36,0-9.32,4.07-11.11,6.72a26.3,26.3,0,0,0-3.77,14.45Zm104.72-1.23v4.07c0,7.94,2.78,15.66,6.75,19.73,4.16,4.07,10.11,8.14,18,8.14h2.18a26.86,26.86,0,0,0,18.25-7.73c4.16-4.28,7.14-10.78,7.14-19.12v-6.51c0-15.05-10.71-26.65-25.59-26.65h-2.38a24.53,24.53,0,0,0-17.65,8.34c-4,4.68-6.75,11.19-6.75,19.73Zm9.72,0v3.67c0,11,5.95,20.34,16.26,20.34h.8c10.32,0,16.07-10.17,16.07-21v-3.66c0-9.16-6.35-19.33-14.68-19.33h-3.77c-4,0-9.12,3.86-10.71,6.31a23.5,23.5,0,0,0-4,13.63ZM510,278.22h21.22c8.93,0,16.27-4.07,16.27-13v-1.42c0-10.17-9.12-13-19.24-13H510Zm0-36.82h16.66c9.12,0,17.65-1.83,17.65-11v-.61c0-10.17-6.75-12.41-16.66-12.41H510Zm0,0"/></g></g></svg>